if (_typeface_js && _typeface_js.loadFace) _typeface_js.loadFace({"glyphs":{"S":{"x_min":44,"x_max":562,"ha":522,"o":"m 562 303 q 552 192 562 218 q 284 48 511 77 q 130 122 207 39 q 135 47 130 109 q 134 -27 139 1 q 79 -50 99 -50 q 48 12 48 -50 q 48 47 48 23 q 48 82 48 71 q 46 115 48 105 l 46 192 q 48 204 46 196 q 51 264 48 230 q 51 296 54 290 q 44 313 44 310 q 100 352 49 352 q 141 328 134 352 q 199 162 141 229 q 292 110 249 105 q 465 175 416 122 q 486 244 486 197 q 423 371 486 329 q 320 398 395 388 q 267 404 280 404 q 146 444 202 404 q 85 551 85 487 l 85 632 q 116 755 85 658 l 131 804 q 163 843 143 833 q 263 867 210 867 q 415 783 366 867 q 429 771 419 779 q 434 830 429 790 q 432 865 432 839 q 451 892 432 885 q 466 896 454 893 q 501 878 492 901 q 508 830 508 861 q 491 604 508 779 q 493 543 493 582 q 450 517 485 517 q 415 526 432 517 q 408 548 407 553 q 391 648 408 586 q 347 742 377 681 q 277 803 317 803 q 205 765 218 803 q 189 712 200 751 q 168 614 173 655 q 166 601 167 598 q 177 541 173 557 q 230 477 191 494 q 313 467 253 467 q 545 340 501 467 q 562 303 552 329 "},"/":{"x_min":71,"x_max":411.703125,"ha":384,"o":"m 411 819 q 401 775 412 810 q 285 415 368 628 q 255 335 278 394 q 168 47 226 257 q 168 19 168 38 q 127 -7 162 -7 q 71 24 71 -7 q 79 54 71 27 q 98 116 86 75 q 151 310 131 258 q 257 596 215 476 q 271 628 262 606 q 285 691 273 650 q 304 760 290 709 q 306 824 306 774 q 318 845 306 834 q 340 858 331 856 q 385 848 362 858 q 411 819 407 839 "},"K":{"x_min":29,"x_max":908,"ha":848,"o":"m 903 145 q 908 126 908 135 q 863 77 908 89 q 773 73 848 73 q 575 29 736 73 q 525 22 550 22 q 503 35 515 22 q 492 58 492 48 q 561 106 492 91 q 633 128 619 119 q 526 316 579 216 q 461 458 511 348 l 436 512 q 358 442 403 488 q 283 369 297 380 q 251 344 274 362 q 263 159 251 224 q 309 163 280 158 q 351 168 339 168 q 389 128 389 168 q 270 79 389 79 q 224 76 255 84 q 180 68 194 68 q 140 63 166 68 q 99 58 113 58 q 45 71 67 58 q 38 88 37 77 q 88 133 44 133 q 142 138 106 133 q 178 167 178 143 l 178 207 q 176 231 178 217 l 176 341 q 169 352 175 344 q 175 426 175 376 q 175 554 175 490 q 184 697 175 629 q 182 720 187 717 q 133 711 168 719 q 81 704 99 704 q 29 742 29 704 q 106 781 29 767 l 262 811 q 327 825 336 825 q 367 797 367 825 q 353 756 367 774 q 305 744 343 751 q 266 736 267 738 q 258 676 265 734 q 250 583 250 606 l 250 522 q 248 483 250 529 q 248 454 248 483 l 252 449 l 561 740 q 501 740 541 740 q 431 794 431 740 q 442 816 431 805 q 465 830 454 828 q 605 836 472 836 q 720 836 634 836 q 752 840 736 838 l 785 843 q 846 813 833 843 q 835 772 855 795 q 804 758 828 765 q 745 758 788 753 q 691 758 731 758 q 675 737 687 744 q 514 583 638 716 q 569 444 528 547 q 625 324 616 329 q 666 244 644 283 q 736 150 720 150 q 856 165 776 154 q 883 161 866 168 q 903 145 899 155 "},"7":{"x_min":20.234375,"x_max":673,"ha":638,"o":"m 548 470 q 455 198 531 430 q 417 70 448 178 l 406 34 q 388 -71 400 -5 q 375 -89 385 -82 q 343 -97 367 -90 q 314 -96 330 -101 q 295 -76 309 -86 q 295 -42 289 -65 q 325 76 307 17 q 385 258 341 123 q 391 265 386 260 q 453 458 417 372 q 523 644 484 531 q 506 643 517 643 q 418 662 453 648 q 339 701 399 670 q 257 739 282 739 q 214 691 239 739 q 202 669 210 683 l 199 662 q 168 569 189 630 q 105 525 151 525 q 48 555 52 525 q 44 669 44 584 q 44 750 44 693 q 30 818 44 758 q 20 875 19 873 q 79 907 42 907 q 144 815 144 907 q 142 761 137 772 q 255 830 209 837 q 438 750 324 819 q 499 723 474 727 q 559 745 525 719 q 578 803 568 754 q 624 842 586 842 q 673 801 673 842 q 548 470 673 764 "},"d":{"x_min":14,"x_max":629.59375,"ha":587,"o":"m 629 -47 q 565 -92 622 -92 q 524 -89 551 -92 q 484 -87 498 -87 q 427 -46 432 -87 l 427 -18 q 218 -66 294 -66 q 51 16 108 -66 q 14 108 20 61 q 14 140 14 119 l 14 176 q 46 317 14 241 q 125 437 78 393 q 290 482 172 482 q 378 472 330 482 q 378 547 378 497 q 378 623 378 598 q 358 624 369 627 q 314 618 336 618 q 259 654 259 618 q 262 669 259 661 q 303 696 268 693 q 421 703 368 703 q 463 675 450 703 q 459 647 459 666 q 479 380 459 543 q 497 237 483 348 q 504 98 504 222 q 519 2 504 57 q 565 -4 520 -8 q 608 -12 587 -4 q 629 -47 633 -26 m 425 53 q 411 207 419 107 q 397 354 397 262 l 388 383 q 348 389 376 380 q 305 400 312 398 q 264 403 283 403 q 161 354 196 403 q 108 244 150 340 q 97 173 101 222 q 130 51 90 95 q 247 8 169 8 q 336 27 291 8 q 425 53 395 53 "},",":{"x_min":149,"x_max":316,"ha":297,"o":"m 307 6 q 293 -30 307 -6 q 258 -44 284 -38 q 219 -34 237 -48 q 204 0 201 -20 q 211 22 207 6 q 173 48 178 44 q 149 83 151 68 q 207 157 149 145 q 281 120 246 164 q 316 36 316 76 q 307 6 316 19 "},"Y":{"x_min":10.75,"x_max":885,"ha":825,"o":"m 850 834 q 796 830 836 830 q 730 830 789 830 q 712 806 719 824 q 615 602 686 741 q 521 397 549 471 q 526 347 521 378 q 536 297 533 309 q 536 90 536 238 q 549 77 536 81 q 619 77 584 77 q 672 40 662 70 q 662 0 670 26 q 569 -19 648 -26 q 504 -16 519 -14 q 369 -26 401 -26 q 308 4 323 -26 q 306 22 304 12 q 398 70 320 70 q 417 65 404 70 q 448 93 445 61 q 448 131 448 106 q 445 171 448 142 q 443 211 443 196 q 440 249 443 261 q 423 406 440 345 q 355 472 391 421 q 255 610 305 541 q 172 756 197 693 q 127 752 156 757 q 85 748 98 748 q 38 759 60 748 q 11 793 11 771 q 35 843 8 825 q 176 859 59 859 q 283 863 247 859 q 381 864 342 870 q 406 840 402 861 q 365 783 415 798 q 279 776 342 776 q 277 763 279 760 q 334 659 308 695 q 401 577 354 634 q 461 504 419 549 q 508 584 481 531 q 549 670 548 666 q 620 821 577 720 l 618 823 q 559 823 583 823 q 512 828 524 823 q 493 855 493 836 q 504 887 493 872 q 531 906 516 903 q 727 916 574 916 q 794 927 745 916 q 885 879 885 927 q 850 834 885 843 "},"E":{"x_min":-2.953125,"x_max":723.546875,"ha":733,"o":"m 723 725 q 669 702 706 702 q 636 709 650 702 q 636 820 636 746 q 256 754 507 796 q 239 747 246 752 q 239 497 239 619 q 328 510 248 494 q 441 536 384 521 q 435 688 435 586 q 469 715 435 715 q 514 680 510 715 l 531 521 l 531 306 q 536 297 535 300 q 512 269 532 281 q 473 258 493 258 q 440 280 448 258 q 443 322 443 303 l 443 449 q 244 414 354 449 q 244 286 244 375 q 244 171 244 207 q 255 143 244 164 q 487 126 347 143 q 629 118 576 118 q 636 176 629 138 l 636 259 q 628 285 628 273 q 645 320 628 306 q 683 335 662 335 q 709 325 699 335 q 712 289 715 319 q 712 266 711 281 q 715 242 715 242 q 713 218 715 234 q 711 195 711 203 l 711 111 q 715 97 711 108 q 715 80 718 84 q 656 42 695 42 q 636 44 649 42 q 616 47 623 47 l 532 47 q 397 57 487 47 q 263 67 308 67 l 175 67 q 128 63 159 67 q 80 60 97 60 q 19 72 41 60 q 12 93 12 76 q 70 138 12 138 l 113 138 q 155 140 129 135 q 164 160 163 144 q 163 189 163 171 q 163 214 163 209 q 163 379 163 358 q 92 397 137 382 q 80 422 80 407 q 161 483 80 462 q 163 521 165 499 q 154 558 161 531 l 154 742 q 106 738 134 742 q 62 734 77 734 q -1 772 -1 734 q 0 785 -1 778 q -2 788 -1 788 q 66 816 29 816 q 116 816 80 816 q 679 896 285 816 q 704 891 692 900 q 718 856 714 875 q 718 814 718 835 q 723 725 718 771 "},"y":{"x_min":-89.109375,"x_max":575,"ha":651,"o":"m 570 542 q 575 530 575 536 q 558 499 575 517 q 527 485 541 482 q 518 481 523 484 q 483 484 504 484 q 470 359 476 401 q 450 237 461 284 q 447 201 450 225 q 404 66 429 155 q 401 48 404 56 q 351 -98 358 -82 q 263 -223 317 -179 q 185 -259 237 -244 q 96 -274 134 -274 q 21 -264 60 -274 q -86 -153 -32 -250 q -88 -128 -90 -148 q -33 -106 -69 -106 q -8 -118 -15 -106 q 20 -169 13 -155 q 98 -210 50 -210 q 205 -178 142 -210 q 246 -129 227 -167 q 270 -61 253 -107 q 299 16 277 -47 q 306 27 303 21 q 306 42 310 35 q 184 191 299 53 q 48 383 113 276 q 0 460 25 419 q -42 473 -14 464 q -79 495 -71 483 q -72 543 -93 516 q -6 563 -58 563 q 60 557 3 563 q 117 558 88 554 q 167 564 153 564 q 212 524 212 564 q 187 489 212 494 q 150 489 168 489 q 118 476 125 485 q 121 454 117 462 q 223 290 153 386 q 348 145 294 194 q 377 307 366 204 l 395 481 q 309 486 365 481 q 264 511 277 493 q 264 543 253 526 q 341 567 282 567 q 437 560 356 567 q 479 562 452 558 q 518 567 506 567 q 570 542 551 567 "},"\"":{"x_min":31,"x_max":303,"ha":309,"o":"m 303 803 q 286 766 303 781 q 247 755 270 751 q 207 760 234 755 q 184 796 184 770 q 184 871 184 814 q 174 912 180 885 q 177 926 174 916 q 180 941 180 937 q 221 961 195 961 q 268 938 254 961 q 291 837 275 917 q 297 822 291 834 q 303 803 303 810 m 160 788 q 104 754 150 754 q 51 774 68 747 q 42 836 42 791 q 32 896 42 881 q 31 903 31 901 q 79 941 31 931 q 126 923 108 947 q 145 869 145 899 q 150 844 145 862 q 156 817 156 825 q 160 788 157 809 "},"g":{"x_min":17,"x_max":696.90625,"ha":649,"o":"m 695 -44 q 693 -90 699 -79 q 643 -173 677 -126 q 606 -204 624 -192 q 547 -232 602 -207 q 358 -270 465 -270 q 157 -217 228 -270 q 66 -126 111 -182 q 27 -68 47 -105 q 17 -15 17 -43 q 111 141 17 96 l 68 190 q 49 248 49 217 q 52 268 49 255 q 55 289 55 282 q 84 336 55 305 q 40 392 46 371 q 30 476 30 433 q 111 675 30 590 q 144 691 124 680 q 157 702 148 696 q 237 739 184 721 q 286 746 258 746 q 335 741 317 746 q 386 825 344 785 q 469 866 428 866 q 609 771 609 866 q 574 743 609 755 q 542 732 545 730 q 519 744 532 734 q 492 778 513 758 q 483 781 488 781 q 447 757 460 781 l 428 722 q 543 582 506 676 q 554 519 554 554 q 504 385 554 449 q 392 296 460 328 q 255 262 318 262 q 162 285 216 262 q 153 256 153 270 q 243 192 153 205 q 386 167 279 187 q 675 29 590 167 q 695 -44 689 8 m 462 487 q 446 593 472 538 q 372 666 419 647 q 296 678 344 678 q 276 670 289 678 q 258 661 264 662 q 222 659 244 662 q 128 540 151 625 q 120 470 120 526 q 174 374 120 418 q 280 330 228 330 q 396 381 342 335 q 462 487 450 427 m 609 -72 q 585 -4 609 -41 q 418 96 532 77 q 244 115 415 96 q 157 75 201 95 q 102 5 102 44 q 143 -97 102 -41 q 228 -171 180 -147 q 376 -206 296 -206 q 469 -192 429 -206 q 609 -72 609 -144 "},"e":{"x_min":13.5,"x_max":501,"ha":468,"o":"m 29 262 l 29 262 m 501 191 q 477 161 498 176 q 441 148 456 146 q 299 163 367 156 q 207 158 267 166 q 123 142 139 158 q 148 63 123 107 q 204 3 175 14 q 245 -2 220 -2 q 352 18 286 -2 q 413 55 371 32 l 441 55 q 461 35 449 49 q 440 -20 465 3 q 382 -53 416 -44 q 234 -81 267 -81 q 141 -56 181 -81 q 23 173 63 -8 q 13 195 20 181 q 22 232 12 198 q 23 270 27 251 q 33 268 26 268 q 47 330 37 288 q 48 349 47 336 q 63 379 49 354 q 232 464 110 464 q 298 463 232 463 q 357 446 310 463 q 435 386 393 435 q 482 299 476 337 q 488 232 482 295 q 494 223 490 229 q 501 191 501 204 m 396 239 q 398 255 398 247 q 361 349 398 305 q 274 393 324 393 q 224 395 256 395 l 186 391 q 153 374 163 386 q 110 261 110 320 l 163 250 q 229 247 196 243 q 329 243 250 250 q 396 239 378 239 "},"J":{"x_min":35,"x_max":632,"ha":595,"o":"m 632 834 q 592 791 632 800 l 531 777 q 570 654 547 740 q 595 501 595 554 l 595 375 q 582 226 595 272 q 554 127 560 142 q 343 -24 500 -24 q 139 38 237 -24 q 36 207 28 109 q 35 225 35 214 q 48 289 35 255 q 83 336 61 323 q 186 374 151 374 q 229 355 210 374 q 248 312 248 336 q 231 279 248 293 q 206 274 227 274 q 157 300 185 274 q 140 297 152 303 q 120 264 122 290 q 120 223 120 241 q 158 128 120 177 q 204 98 164 123 q 347 48 285 48 q 430 71 387 48 q 512 368 512 156 l 512 462 q 479 654 512 550 l 479 666 q 461 712 472 685 q 456 740 458 735 q 441 761 452 757 q 392 748 438 762 q 333 735 346 735 q 281 766 295 735 q 278 787 275 779 q 351 844 290 830 l 438 855 q 597 866 470 866 q 620 854 608 865 q 632 834 632 843 "},"‐":{"x_min":35,"x_max":477.875,"ha":471,"o":"m 476 419 q 452 393 472 403 q 414 383 432 383 l 401 383 q 386 379 390 379 q 266 379 341 379 q 147 379 176 379 q 91 371 133 371 q 53 381 71 371 q 35 410 35 391 q 71 449 35 439 q 132 451 100 457 l 190 451 q 419 463 314 451 q 462 453 441 466 q 476 419 482 441 "},"q":{"x_min":-69.265625,"x_max":550,"ha":478,"o":"m 550 -178 q 531 -214 550 -195 q 495 -238 512 -233 q 449 -238 487 -238 q 381 -242 435 -242 q 306 -257 362 -247 q 277 -260 290 -260 q 225 -221 225 -260 q 266 -165 225 -181 l 336 -149 q 316 165 316 -61 q 240 154 291 165 q 168 146 195 146 q -32 244 44 146 q -57 287 -47 283 l -54 290 q -66 308 -65 300 q -60 402 -73 353 q -25 493 -60 405 q 179 607 31 607 q 279 590 240 607 q 283 622 277 601 q 296 651 286 631 q 334 679 314 674 q 394 684 355 679 q 421 689 402 684 q 449 694 440 694 q 476 686 466 694 q 504 645 504 663 q 448 605 504 619 q 386 595 404 595 q 386 329 386 574 q 423 -136 386 136 q 454 -145 435 -145 q 478 -142 462 -145 q 502 -139 494 -139 q 534 -151 519 -139 q 550 -178 550 -163 m 303 253 q 284 490 303 333 q 270 489 277 489 q 251 491 261 489 q 211 522 238 502 q 151 535 161 535 q 58 472 97 535 q 22 360 22 416 q 26 330 22 343 q 184 224 63 224 q 269 243 232 224 q 303 253 272 246 "},"b":{"x_min":18,"x_max":595.765625,"ha":553,"o":"m 592 235 q 587 127 600 200 q 474 -9 570 40 q 295 -54 391 -54 q 212 -20 266 -54 q 204 -52 204 -31 q 206 -77 204 -60 q 209 -101 209 -93 q 206 -108 209 -107 q 166 -133 191 -128 q 132 -135 164 -135 q 130 -114 131 -126 q 130 277 130 -30 q 130 387 130 304 l 130 461 l 130 539 q 137 558 130 545 q 143 579 145 571 q 135 611 142 596 q 64 598 78 598 q 18 639 18 598 q 98 691 18 684 q 166 697 117 691 q 208 691 183 700 q 235 667 233 682 q 237 577 237 646 q 227 483 227 546 q 227 365 227 453 q 229 364 228 364 q 317 399 262 386 q 413 407 373 412 q 527 350 478 398 q 592 235 575 301 m 507 133 q 510 162 510 146 q 471 276 510 225 q 369 334 429 334 q 348 331 358 334 q 280 301 327 328 q 211 265 233 274 q 211 75 211 168 q 329 17 288 17 q 342 21 337 17 q 507 133 468 21 "},"D":{"x_min":-28.734375,"x_max":686.015625,"ha":746,"o":"m 682 317 q 493 103 668 189 q 233 35 352 35 q 160 35 214 35 l 104 35 l 25 35 q 10 28 17 28 q -28 65 -23 28 q 47 97 -9 103 q 131 93 136 89 q 131 261 131 129 q 131 680 131 339 q 108 710 131 701 q 90 710 101 714 q 57 707 78 707 q -24 748 -24 707 q -20 763 -24 755 q 44 797 -5 797 q 81 794 54 797 q 119 792 107 791 q 226 785 132 794 q 347 769 303 778 q 636 545 520 730 q 677 442 654 516 q 682 317 691 400 m 579 261 q 607 362 607 310 q 464 622 607 492 q 387 672 443 641 q 210 716 310 716 q 210 246 210 380 q 240 95 212 235 q 411 134 316 95 q 559 228 501 173 q 579 261 561 229 "},"z":{"x_min":28.0625,"x_max":526.953125,"ha":491,"o":"m 520 109 q 521 -1 520 18 q 506 -42 525 -31 q 461 -54 461 -54 q 432 -49 451 -54 q 404 -44 414 -44 l 236 -44 q 182 -48 217 -44 q 131 -52 147 -52 q 66 -48 97 -52 q 33 -20 54 -35 q 46 14 36 -6 q 129 124 93 61 q 247 329 162 168 q 303 416 261 357 q 367 515 356 490 q 372 533 371 522 q 205 538 340 538 q 136 518 161 538 q 141 480 136 506 q 146 442 146 454 q 87 398 146 398 q 36 425 48 398 q 35 447 37 435 q 35 564 35 460 q 28 577 33 575 q 41 604 35 585 q 61 617 47 609 q 129 625 95 629 q 300 616 201 616 q 350 613 317 616 q 399 611 383 611 q 426 614 404 611 q 485 577 480 620 q 479 543 485 556 q 366 379 443 488 q 364 370 366 377 q 235 149 321 291 q 158 28 212 114 q 201 28 172 28 q 243 29 229 28 q 306 28 228 29 q 358 28 306 28 q 386 28 386 28 q 426 30 430 30 q 435 129 435 39 q 480 191 435 191 q 507 186 492 191 q 526 149 526 174 q 520 109 526 131 "},"w":{"x_min":-48.328125,"x_max":878,"ha":902,"o":"m 878 548 q 834 510 878 514 q 766 505 816 510 q 687 174 745 419 q 649 19 679 133 q 620 -73 641 -6 q 548 -110 598 -116 q 523 -90 531 -109 q 506 -33 522 -87 q 444 211 474 80 q 408 333 436 228 l 404 339 l 345 129 q 272 -70 308 -2 q 227 -94 266 -81 q 179 -90 201 -102 q 102 194 138 30 l 42 463 q -14 475 40 470 q -38 490 -25 477 q -47 514 -51 503 q 49 561 -32 561 q 126 566 109 561 q 184 561 152 573 q 217 520 222 547 q 189 495 215 506 q 144 484 163 484 q 140 446 137 479 q 154 379 142 420 q 172 313 169 329 q 194 201 184 246 q 231 64 212 117 q 279 210 251 101 q 322 381 291 257 q 336 454 329 418 q 365 525 345 498 q 447 505 420 525 q 476 425 452 501 q 512 300 486 393 q 569 75 526 242 q 586 142 586 82 q 672 496 616 247 l 631 501 q 601 523 608 508 q 605 544 604 538 q 619 561 609 555 q 694 584 651 579 q 801 596 782 596 q 878 548 878 596 "},"$":{"x_min":31,"x_max":391,"ha":372,"o":"m 391 345 q 346 267 391 300 q 261 232 309 238 q 245 224 251 231 q 249 103 249 192 q 232 84 236 92 q 207 79 224 84 q 182 75 190 75 q 163 96 168 86 q 168 127 165 95 q 168 179 170 160 q 168 211 168 182 q 159 243 168 232 q 140 254 152 247 q 99 285 123 268 q 67 332 67 297 q 92 385 67 370 q 100 381 96 388 q 129 372 117 378 q 140 340 134 356 q 169 311 150 320 q 177 388 177 350 q 174 435 177 411 q 156 434 166 434 q 75 460 111 434 q 35 533 35 490 q 33 542 35 536 q 31 552 31 549 q 89 638 37 593 q 181 693 133 677 q 189 771 182 698 q 228 823 193 817 q 250 809 240 824 q 261 781 261 794 q 260 773 261 777 l 260 703 q 300 685 288 691 q 334 659 322 673 q 352 606 359 628 q 300 573 340 573 q 260 598 268 573 q 253 567 253 581 q 253 502 253 573 q 265 497 258 497 q 355 444 319 488 q 391 345 391 400 m 174 623 q 172 631 173 628 q 117 559 117 611 q 174 506 117 506 q 174 623 174 546 m 253 417 q 245 307 253 377 q 250 289 245 302 q 298 338 298 296 q 253 417 298 386 "},"\\":{"x_min":37.65625,"x_max":377,"ha":352,"o":"m 368 7 q 333 -3 356 4 q 287 9 318 -2 q 281 32 281 14 q 278 53 281 50 l 228 229 q 165 411 207 303 q 97 590 105 568 q 46 781 58 702 q 37 824 36 817 q 94 862 47 862 q 122 856 104 862 q 142 828 142 845 q 190 602 142 759 q 278 356 203 561 q 349 121 300 296 q 358 86 353 105 q 370 60 363 82 q 377 30 377 39 q 368 7 377 18 "},"-":{"x_min":35,"x_max":477.875,"ha":471,"o":"m 476 419 q 452 393 472 403 q 414 383 432 383 l 401 383 q 386 379 390 379 q 266 379 341 379 q 147 379 176 379 q 91 371 133 371 q 53 381 71 371 q 35 410 35 391 q 71 449 35 439 q 132 451 100 457 l 190 451 q 419 463 314 451 q 462 453 441 466 q 476 419 482 441 "},"Q":{"x_min":24,"x_max":741,"ha":692,"o":"m 739 -68 q 701 -97 730 -75 q 598 -146 641 -146 q 499 -90 550 -146 q 451 -15 458 -45 q 456 -12 453 -15 q 433 79 446 1 q 343 67 392 67 q 186 106 260 67 q 71 217 112 146 q 24 428 24 297 q 179 782 24 629 q 336 871 269 871 q 608 767 481 871 q 677 639 650 734 q 703 492 703 556 q 652 262 703 346 q 520 121 601 179 q 537 1 520 54 q 618 -68 564 -75 q 655 -37 620 -66 q 700 -18 679 -18 q 730 -26 715 -18 q 735 -41 730 -27 q 741 -62 741 -55 q 739 -68 741 -66 m 625 477 q 615 584 625 504 q 605 613 613 585 q 494 752 573 723 q 435 784 474 766 q 300 793 369 803 q 187 699 258 788 q 96 461 96 585 q 107 365 96 411 q 129 272 111 333 q 228 171 154 215 q 250 242 228 190 q 286 288 273 279 q 364 313 322 313 q 511 209 462 313 q 558 264 531 231 q 588 316 571 277 q 611 360 605 356 q 609 374 609 367 q 617 424 609 390 q 625 477 625 458 m 425 155 q 364 230 405 230 q 318 195 326 230 q 311 182 315 189 q 303 143 307 168 q 346 139 325 139 q 425 155 390 139 "},"M":{"x_min":46.34375,"x_max":1042.671875,"ha":1000,"o":"m 1042 171 q 1035 131 1041 167 q 955 99 1003 99 q 884 60 932 86 q 824 43 864 56 q 730 0 798 28 q 713 -2 720 -2 q 680 13 692 -2 q 723 79 674 54 q 797 119 745 90 q 743 578 797 357 q 740 574 743 577 q 687 167 723 424 q 667 108 684 147 q 615 87 648 94 q 551 166 585 81 q 509 275 537 202 q 415 450 494 311 q 368 543 391 490 l 323 640 q 318 542 318 585 l 318 446 q 312 406 318 436 q 307 385 307 393 q 307 260 307 354 q 307 182 307 218 q 320 166 307 168 q 355 172 327 166 q 400 181 368 174 q 447 189 432 189 q 484 172 468 189 q 487 149 487 160 q 484 126 487 138 q 432 99 463 107 q 376 93 418 97 q 227 67 324 86 q 112 29 179 47 q 76 31 101 27 q 48 46 51 35 q 48 74 44 56 q 169 131 54 103 q 212 138 183 132 q 229 149 223 140 q 229 239 229 220 q 229 589 229 479 l 229 664 q 233 788 229 736 q 220 795 227 796 q 112 777 180 786 q 51 821 59 777 q 54 834 49 827 q 129 866 63 857 q 217 866 173 866 q 252 872 234 868 q 276 877 263 877 q 311 868 293 877 q 347 806 329 848 q 468 536 386 715 q 529 421 484 507 l 606 271 q 684 750 626 379 q 694 846 685 767 q 751 896 694 885 q 856 896 770 896 q 969 896 902 896 q 1026 850 1026 896 q 959 808 1026 808 q 916 815 941 815 q 810 801 864 815 q 805 768 805 799 q 810 695 805 736 q 818 675 813 689 q 873 307 838 553 l 889 160 q 925 172 895 157 q 963 193 944 182 q 998 198 974 198 q 1042 171 1039 198 "},"C":{"x_min":33,"x_max":550,"ha":524,"o":"m 550 427 q 543 301 550 372 q 480 127 531 181 q 368 70 455 101 q 282 58 332 58 q 156 81 216 58 q 67 164 84 110 q 55 184 62 171 q 33 309 48 226 l 33 447 q 41 527 33 466 q 55 601 49 588 q 162 743 104 730 q 220 749 188 749 q 406 698 322 749 q 420 696 411 696 q 422 730 422 700 q 422 779 422 735 q 462 841 422 841 q 507 815 503 841 q 507 712 507 801 l 507 617 q 507 596 507 592 q 487 571 501 575 q 436 570 450 558 q 420 574 429 570 q 390 625 413 593 q 308 671 358 652 q 219 691 258 691 q 145 620 173 691 q 111 368 111 518 q 111 281 111 299 q 193 134 123 171 q 262 116 229 116 q 458 266 430 116 q 461 402 473 348 q 460 417 460 410 q 512 453 460 453 q 536 444 522 453 q 550 427 550 436 "},"[":{"x_min":62,"x_max":310,"ha":286,"o":"m 307 782 q 269 771 292 771 q 236 771 253 771 q 167 765 200 771 q 152 700 152 757 q 145 589 152 605 l 145 198 q 154 109 145 172 q 179 107 165 107 q 212 109 190 107 q 244 111 233 111 q 300 73 291 111 q 285 40 297 68 q 267 32 276 33 l 186 32 q 152 27 183 32 q 118 27 129 25 q 74 44 103 33 q 64 70 77 57 q 62 154 62 83 q 62 231 62 181 q 63 241 63 236 q 63 503 63 294 q 65 518 63 514 q 63 532 63 526 q 65 546 63 539 q 64 564 64 554 q 64 640 64 589 q 64 715 64 690 q 68 750 64 726 q 73 785 73 774 q 70 796 73 789 q 70 808 68 804 q 82 824 72 815 q 147 833 86 824 q 218 841 190 841 q 294 831 247 841 q 310 796 310 828 q 307 782 310 788 "},"L":{"x_min":32,"x_max":737.609375,"ha":688,"o":"m 736 167 q 669 115 747 115 q 603 110 669 110 q 354 95 546 95 q 181 73 309 95 q 129 66 147 69 q 119 64 111 64 q 58 89 80 64 q 57 108 57 101 q 58 117 57 116 q 119 156 75 147 q 194 156 123 156 q 199 161 196 156 q 183 292 199 218 l 183 369 q 163 611 183 426 q 163 732 163 632 q 136 736 153 738 q 114 735 116 734 l 69 741 q 32 788 32 750 q 114 829 32 829 q 167 829 121 829 q 205 829 193 829 q 345 833 242 833 q 393 793 393 833 q 312 748 393 748 q 242 748 259 748 q 248 664 242 742 q 254 549 254 603 l 254 480 q 270 294 254 455 q 281 177 276 243 q 288 172 284 172 q 380 167 341 167 q 484 177 409 177 l 551 177 q 639 195 600 177 q 632 244 639 208 l 622 294 q 624 335 624 308 q 612 399 618 371 q 618 403 614 399 q 636 426 617 417 q 666 435 651 435 q 701 404 690 435 q 707 353 709 379 q 718 201 701 306 q 736 167 726 190 "},"!":{"x_min":67.75,"x_max":223,"ha":209,"o":"m 188 300 q 180 247 194 264 q 141 238 171 238 q 83 269 87 238 q 85 285 83 275 q 87 300 87 295 q 79 410 87 361 l 79 680 q 79 714 79 707 q 79 727 79 721 q 79 728 79 731 q 67 794 66 780 q 91 813 70 805 q 156 813 130 830 q 183 755 183 796 q 178 707 183 742 q 176 660 176 678 q 176 613 176 675 l 176 516 q 176 385 176 510 q 181 315 176 356 q 188 300 184 310 m 223 110 q 202 67 223 85 q 155 49 181 49 q 109 62 138 49 q 90 95 90 72 q 171 163 90 163 q 223 110 223 163 "}," ":{"x_min":0,"x_max":0,"ha":694},"X":{"x_min":18,"x_max":960.890625,"ha":897,"o":"m 959 166 q 944 125 965 141 q 897 110 923 110 q 754 110 850 110 q 640 102 718 102 q 600 97 626 102 q 559 93 573 93 q 507 152 497 93 q 562 183 525 174 q 626 191 572 184 q 464 391 587 244 q 373 266 422 345 l 304 153 q 377 129 321 138 q 429 83 421 122 q 421 70 427 87 q 419 55 421 65 q 396 29 412 30 q 312 42 361 29 q 230 66 240 65 q 64 94 198 72 q 24 133 24 105 q 26 145 24 138 q 48 164 40 162 q 172 173 100 188 q 210 169 191 169 q 247 227 222 181 q 284 295 280 290 q 404 458 311 334 q 283 616 341 537 q 194 737 261 647 q 160 775 166 775 q 122 772 168 775 q 79 773 93 772 q 18 826 18 780 q 98 878 18 878 q 271 878 146 878 q 361 894 322 894 q 396 856 396 894 q 382 815 396 832 q 279 794 354 805 q 300 753 275 784 q 339 704 332 713 q 459 547 354 680 q 565 686 518 612 l 645 811 q 650 828 650 818 q 629 830 640 830 q 607 827 622 830 q 586 825 593 825 q 538 856 561 825 q 620 912 530 899 q 740 917 651 917 q 828 917 769 917 q 916 917 887 917 q 941 898 927 915 q 943 868 947 888 q 913 834 936 839 q 766 834 854 834 q 523 470 680 711 q 719 219 602 377 q 741 203 731 203 l 834 203 q 868 203 845 203 q 902 203 891 203 q 959 166 952 203 "},"P":{"x_min":25,"x_max":688.84375,"ha":643,"o":"m 688 689 q 598 549 671 596 q 448 500 549 517 q 298 470 328 479 l 298 397 q 304 226 304 358 q 319 89 304 144 q 340 89 320 89 q 420 95 362 89 q 453 102 435 100 q 515 61 515 111 q 445 15 515 15 q 413 17 430 15 q 356 15 391 19 q 301 8 310 8 q 208 -1 271 8 q 112 -11 145 -11 q 68 -3 91 -11 q 37 22 37 6 q 63 60 37 50 q 146 71 89 71 l 232 71 q 230 146 230 97 q 229 179 230 154 q 226 186 229 180 q 224 194 224 191 q 223 257 224 246 q 219 331 219 273 l 219 415 q 216 430 219 421 q 213 443 213 439 l 213 536 q 208 803 213 492 q 194 819 208 813 q 137 809 178 817 q 81 801 100 801 q 26 824 47 801 q 25 843 25 834 q 33 863 25 856 q 124 893 59 886 q 224 893 142 893 q 243 894 231 893 q 262 896 256 896 q 327 896 273 896 q 391 896 370 896 q 556 867 451 896 q 648 806 599 855 q 683 750 678 775 q 688 689 690 700 m 605 707 q 314 826 580 826 q 294 819 307 826 q 294 541 294 721 q 338 545 308 541 q 503 572 360 545 q 601 660 584 588 q 605 707 608 692 "},"%":{"x_min":60,"x_max":455,"ha":416,"o":"m 145 590 q 133 588 140 588 q 84 608 109 588 q 60 653 60 629 q 76 686 60 670 q 109 702 93 703 q 189 643 184 693 q 145 590 189 604 m 411 819 q 402 775 413 810 q 285 415 368 628 q 255 334 278 394 q 168 47 226 256 q 168 19 168 38 q 127 -7 162 -7 q 71 25 71 -7 q 79 54 71 27 q 98 116 86 75 q 151 309 131 258 q 257 596 215 476 q 271 628 262 606 q 285 690 273 650 q 304 760 290 709 q 306 824 306 774 q 318 845 306 834 q 340 858 331 856 q 385 848 363 858 q 411 819 407 839 m 413 157 q 400 156 407 156 q 352 175 377 156 q 327 218 327 195 q 343 252 327 237 q 377 268 359 268 q 445 243 429 262 q 455 209 455 229 q 413 157 455 173 "},"#":{"x_min":27.78125,"x_max":545.5625,"ha":525,"o":"m 544 490 q 475 442 554 442 q 432 444 461 442 l 432 375 q 457 368 437 368 l 487 368 q 525 351 511 368 l 533 330 q 522 307 534 322 q 502 291 511 292 q 428 290 483 290 q 423 231 423 271 q 420 173 423 191 q 368 157 399 157 q 333 165 347 157 q 330 227 326 184 l 337 295 q 241 300 287 300 q 236 249 236 283 q 233 198 236 212 q 215 180 219 192 l 179 180 q 149 189 161 180 q 138 216 138 199 q 144 266 140 230 l 147 298 q 76 306 136 306 q 27 343 40 306 q 48 368 33 352 q 94 377 62 377 l 149 377 q 149 408 149 394 q 142 439 149 437 q 88 453 122 439 q 75 476 75 464 q 96 508 75 494 q 136 520 118 522 q 138 528 138 522 q 128 583 138 544 q 121 638 121 618 q 168 675 121 675 q 229 626 229 675 q 229 522 229 586 q 334 520 263 520 q 337 568 342 536 q 332 619 332 612 l 332 694 q 330 724 326 704 q 373 762 338 762 q 421 731 413 762 q 426 672 426 715 l 427 600 q 427 557 427 607 q 428 526 428 557 q 462 526 415 526 q 497 528 462 528 q 544 490 537 528 m 342 374 l 342 439 l 239 439 q 240 374 239 376 l 342 374 "},"+":{"x_min":89,"x_max":556.53125,"ha":524,"o":"m 555 430 q 550 406 558 414 q 466 385 516 374 q 351 384 453 384 q 360 241 360 323 q 306 211 360 211 q 272 238 272 211 q 272 258 270 245 q 273 276 273 272 q 269 324 273 292 q 266 372 266 355 l 131 372 q 89 400 89 376 q 105 429 89 415 q 137 444 122 442 q 204 444 161 444 q 265 451 252 444 q 274 608 265 505 q 306 624 287 624 q 338 604 331 624 q 347 529 340 598 l 347 456 q 393 454 358 454 q 461 461 432 454 l 518 461 q 555 430 550 456 "},")":{"x_min":63.84375,"x_max":382,"ha":357,"o":"m 382 382 q 361 264 372 307 q 302 129 355 246 q 235 46 286 93 q 145 -19 184 0 q 115 -27 136 -24 q 86 -27 91 -30 q 63 18 76 -21 q 101 53 62 29 q 151 82 118 62 q 265 226 223 126 q 300 409 300 315 q 257 655 300 563 q 152 802 232 710 q 79 869 123 824 q 79 915 70 877 q 109 922 94 922 q 186 883 144 922 q 255 809 204 866 q 347 641 318 739 q 382 456 362 589 l 382 382 "},"'":{"x_min":31,"x_max":160.28125,"ha":151,"o":"m 160 787 q 104 753 150 753 q 51 773 68 746 q 42 835 42 790 q 32 896 42 880 q 31 903 31 900 q 79 940 31 930 q 126 922 108 946 q 145 868 145 898 q 150 843 145 861 q 156 816 156 825 q 160 787 157 808 "},"T":{"x_min":8,"x_max":770.46875,"ha":717,"o":"m 768 773 q 752 667 757 724 q 754 628 750 651 q 759 589 759 600 q 712 553 759 553 q 673 571 682 553 q 673 654 673 601 q 673 738 673 717 q 671 738 674 738 q 428 724 542 738 q 428 679 426 706 l 434 629 q 428 501 428 586 q 433 191 433 465 l 433 90 q 439 57 433 66 l 526 57 q 579 12 579 63 q 549 -30 579 -18 q 485 -33 531 -37 q 420 -32 458 -32 q 295 -43 368 -43 q 203 -19 220 -43 q 203 12 192 -4 q 305 43 223 43 q 348 66 348 43 q 347 90 348 79 q 347 151 347 125 q 347 362 347 226 q 347 717 347 559 l 348 720 q 187 720 305 720 q 102 720 181 720 q 123 526 123 583 q 122 489 122 526 q 88 468 122 468 q 42 568 61 468 q 26 689 34 628 q 17 723 26 699 q 8 760 8 747 q 60 803 8 794 q 74 802 64 803 q 88 801 84 801 l 233 801 q 433 803 433 801 q 679 822 560 803 q 704 830 688 826 q 754 817 734 833 q 768 773 775 802 "},"a":{"x_min":29,"x_max":491.453125,"ha":456,"o":"m 438 -76 q 367 -28 420 -78 q 247 -51 316 -51 q 95 -7 152 -51 q 29 133 29 40 q 54 200 44 167 q 91 257 69 237 q 287 336 180 336 q 347 328 318 336 q 242 520 347 500 q 201 514 223 524 q 174 486 180 504 q 150 443 168 468 q 118 434 136 434 q 84 463 87 434 q 112 536 81 486 q 232 599 148 599 q 365 542 326 599 q 437 315 437 439 l 416 115 q 449 14 410 48 q 481 -3 464 8 q 491 -27 488 -9 q 438 -76 495 -66 m 339 278 q 233 264 249 268 q 149 214 184 251 q 114 128 114 176 q 168 48 114 75 q 268 28 209 28 q 339 41 280 29 q 339 100 339 62 q 339 189 339 129 q 339 278 339 249 "},"=":{"x_min":59.875,"x_max":503,"ha":481,"o":"m 494 495 q 470 468 489 480 q 436 459 451 456 q 119 465 340 465 l 111 460 q 71 474 79 465 q 64 517 53 495 q 114 544 79 544 q 198 544 150 544 q 296 544 279 544 q 387 544 340 544 q 472 535 428 544 q 489 519 480 534 q 494 495 497 503 m 503 347 q 443 304 503 304 q 391 308 428 304 l 261 308 q 180 296 234 305 q 129 289 147 289 q 107 294 118 289 q 86 316 89 298 q 121 354 83 340 q 283 382 168 371 q 398 378 336 382 l 466 378 q 503 347 503 378 "},"N":{"x_min":27.28125,"x_max":869,"ha":811,"o":"m 863 828 q 798 791 842 802 q 725 791 760 791 q 725 696 725 749 q 725 505 725 645 q 725 430 725 441 q 729 318 725 391 q 733 256 733 244 q 731 55 731 190 q 710 15 728 34 q 670 -6 692 -3 q 634 6 667 -6 q 623 37 630 26 q 548 155 602 68 q 452 334 516 215 q 314 540 406 398 q 281 599 304 560 l 278 600 q 278 547 278 574 q 278 476 278 515 q 281 466 278 473 q 284 455 284 459 l 284 359 q 279 254 284 292 q 286 196 279 234 q 334 186 306 186 q 363 188 343 186 q 393 190 384 190 q 452 161 434 190 q 422 116 459 133 q 363 105 392 101 q 247 98 324 105 q 173 87 226 98 q 97 82 125 77 q 34 135 34 82 q 37 152 34 144 q 117 186 59 186 l 139 186 q 160 185 153 185 q 199 194 188 185 q 198 222 198 202 l 198 372 q 195 415 195 389 l 195 664 q 188 691 188 664 q 146 723 188 723 q 113 720 135 723 q 79 717 90 717 q 27 772 27 717 q 38 793 27 781 q 59 806 50 804 q 133 809 76 809 q 183 809 150 809 q 229 809 215 809 q 263 794 242 809 q 292 770 285 780 q 370 629 309 738 q 532 365 414 556 q 634 185 554 329 q 639 234 639 208 q 642 269 639 245 q 645 304 645 292 q 643 340 645 327 l 637 365 l 637 446 q 637 788 637 458 q 622 789 630 789 q 549 777 611 789 q 500 777 531 777 q 479 793 489 785 q 466 811 464 803 q 472 838 466 821 q 520 866 491 859 q 577 869 531 869 q 801 884 662 869 q 844 871 820 884 q 869 840 869 858 q 863 828 869 833 "},"2":{"x_min":54,"x_max":609,"ha":569,"o":"m 609 -50 q 575 -82 609 -68 q 439 -65 545 -94 q 299 -25 392 -52 q 201 -50 244 -18 q 98 -103 130 -103 q 60 -86 77 -103 l 60 -55 q 64 -48 60 -54 q 68 -39 67 -43 q 76 -25 69 -36 q 104 124 76 50 q 296 414 164 283 q 388 506 311 429 q 442 556 415 531 q 479 611 479 590 q 487 625 483 615 q 485 667 488 640 q 477 710 481 674 q 317 794 435 794 q 196 753 238 794 q 185 749 192 752 q 156 720 162 734 q 92 652 127 652 q 54 703 54 652 q 94 798 54 727 q 116 813 102 803 q 141 831 123 820 q 219 857 208 854 q 299 873 267 873 q 463 838 384 873 q 548 760 513 816 q 583 649 583 704 q 551 563 583 601 q 533 545 541 554 q 480 493 509 522 q 424 437 472 485 q 338 350 377 389 l 330 342 q 292 299 321 322 q 234 211 285 271 q 222 181 235 200 q 208 156 209 161 q 178 78 196 129 q 164 26 174 61 q 249 50 194 36 q 312 56 271 56 q 456 25 370 56 l 515 4 q 553 4 534 4 q 609 -50 609 4 "},"j":{"x_min":-119,"x_max":310,"ha":423,"o":"m 247 705 q 223 656 247 679 q 173 634 199 634 q 141 629 161 629 q 66 673 78 629 q 84 730 59 698 q 135 762 109 762 q 247 705 247 762 m 310 90 q 264 -139 310 -59 q 186 -210 250 -164 q 34 -272 101 -272 q -15 -266 13 -272 q -54 -241 -31 -263 q -119 -110 -119 -183 q -95 -57 -119 -75 q -53 -52 -81 -54 q -29 -93 -38 -52 q -21 -152 -25 -123 q 52 -204 3 -204 q 136 -170 92 -204 q 197 -102 174 -142 q 234 110 234 29 q 228 173 234 139 q 215 248 222 207 q 200 354 211 273 q 182 448 195 396 q 164 499 177 468 q 130 495 163 500 q 50 507 80 488 q 40 549 40 514 q 63 573 41 561 q 99 584 85 584 q 179 595 130 584 q 222 589 193 598 q 253 568 251 581 q 270 488 259 548 q 292 316 275 441 q 310 90 310 164 "},"Z":{"x_min":32.484375,"x_max":644.21875,"ha":619,"o":"m 642 66 q 633 24 648 52 q 589 5 621 5 q 555 6 578 5 q 519 8 531 8 l 395 8 q 233 8 353 8 q 127 -3 216 8 q 48 26 78 -7 q 33 67 29 46 q 77 125 36 84 q 187 312 152 253 q 306 492 251 414 l 401 623 q 510 787 484 740 q 473 793 496 793 l 378 793 q 306 793 355 793 q 234 793 258 793 q 169 793 178 793 q 160 740 166 791 q 165 674 165 744 q 173 645 165 669 q 174 619 177 627 q 166 601 170 603 q 111 578 145 578 q 65 647 65 578 q 65 759 65 683 q 63 812 65 788 q 61 835 61 829 q 131 882 61 882 q 244 882 155 882 l 367 882 q 453 882 399 882 q 498 882 474 882 q 537 875 520 882 q 584 868 559 875 q 609 848 595 865 q 619 831 612 841 q 608 780 626 813 q 516 631 556 687 q 360 414 476 574 q 244 235 301 330 q 176 114 226 206 q 174 103 173 109 q 190 94 180 94 q 366 94 280 94 l 544 94 q 544 287 544 146 q 542 335 544 303 q 539 383 539 367 q 584 435 539 439 q 606 435 592 437 q 633 392 616 431 l 633 309 q 633 85 633 199 q 642 66 633 82 "},"u":{"x_min":-135.78125,"x_max":594,"ha":694,"o":"m 594 6 q 576 -28 594 -20 q 507 -40 547 -42 q 466 -40 498 -40 q 393 8 404 -40 q 395 49 393 15 q 397 84 398 76 q 203 -44 325 -44 q 57 23 121 -44 q 4 144 16 66 l 4 269 q 4 429 4 329 q 4 463 4 440 q 5 496 5 485 q -32 495 -11 495 l -73 495 q -134 545 -143 495 q -80 577 -114 577 q -50 574 -71 577 q -21 571 -30 571 l 62 571 q 123 543 123 571 q 117 521 123 533 q 97 504 116 518 l 92 412 q 92 318 92 360 q 105 140 92 164 q 213 29 129 42 q 291 69 255 22 q 314 116 306 90 q 351 349 351 216 q 351 565 351 404 q 398 581 366 581 q 449 554 442 581 q 454 457 454 538 q 462 355 454 422 q 474 265 466 330 q 485 129 474 216 q 485 87 485 104 q 490 57 485 57 l 512 54 q 556 52 515 52 q 587 42 580 52 q 594 6 594 32 "},"1":{"x_min":64.0625,"x_max":483.890625,"ha":451,"o":"m 482 -28 q 392 -61 450 -66 q 338 -60 350 -57 q 315 -65 333 -60 q 290 -71 298 -71 q 279 -67 287 -71 q 268 -64 272 -64 q 226 -64 254 -64 q 184 -64 198 -64 l 125 -64 q 83 -55 90 -64 q 71 -30 71 -39 q 64 -18 66 -26 q 143 29 73 29 q 172 27 158 29 q 253 29 241 20 q 253 137 253 74 q 253 504 253 277 q 257 704 257 565 q 232 691 248 705 q 205 670 208 672 q 169 664 187 664 q 127 698 127 664 q 177 755 127 723 q 247 821 236 793 q 308 845 276 845 q 358 803 350 845 q 353 787 356 797 q 345 623 345 739 q 345 594 345 616 q 340 566 340 577 l 340 418 q 341 407 340 418 q 343 384 343 397 l 343 350 l 343 33 q 396 31 382 26 q 428 39 414 39 q 482 2 460 39 q 482 -28 485 -1 "},"k":{"x_min":19,"x_max":748.40625,"ha":698,"o":"m 748 2 q 723 -32 750 -16 q 675 -48 695 -48 q 609 -50 655 -48 q 503 -61 543 -56 q 420 -37 439 -69 q 416 -8 416 -30 q 429 12 422 -4 q 484 35 449 19 q 481 52 486 45 q 366 233 421 137 q 332 274 353 248 q 299 244 319 272 q 267 203 272 209 q 217 174 251 191 q 213 108 213 149 l 213 26 q 244 25 222 25 q 281 30 271 30 q 338 -11 338 30 q 317 -45 338 -28 q 279 -64 296 -62 q 253 -62 271 -64 q 229 -60 236 -60 q 167 -70 211 -60 l 79 -82 q 25 -50 32 -82 q 39 -17 21 -32 q 75 2 56 -1 q 121 10 84 3 q 130 27 125 13 l 130 186 q 128 214 130 170 q 127 262 127 258 l 127 480 q 104 699 127 606 q 73 702 97 702 q 19 735 23 702 q 37 778 19 765 q 82 795 45 785 q 160 807 140 810 q 184 792 170 806 q 198 768 198 778 q 213 692 198 749 q 213 489 213 550 l 213 394 q 213 298 213 358 q 457 505 324 389 q 410 525 438 510 q 404 546 404 535 q 434 591 404 575 q 491 603 460 606 q 620 597 523 597 q 652 598 611 598 q 724 585 695 598 q 744 544 744 577 q 719 510 744 522 q 671 499 695 499 q 652 500 657 499 q 584 500 627 505 q 518 458 563 497 q 457 401 499 439 l 417 365 q 463 266 424 334 q 482 227 468 256 l 528 156 q 599 70 556 113 q 609 56 603 63 q 621 44 616 44 q 652 46 631 44 q 682 48 673 48 q 739 20 728 48 q 748 2 744 15 "},"<":{"x_min":47,"x_max":375.046875,"ha":351,"o":"m 373 241 q 326 211 367 221 q 255 238 291 211 q 199 293 248 244 q 110 350 151 325 q 55 390 90 362 q 47 411 47 401 q 73 445 47 426 q 113 473 94 459 q 259 601 170 515 q 305 635 284 635 q 345 625 326 635 q 365 593 370 612 q 340 555 359 573 q 176 418 310 527 q 283 344 187 394 q 326 308 287 343 q 358 291 335 305 q 373 241 380 270 "},"t":{"x_min":22,"x_max":489,"ha":457,"o":"m 482 78 q 447 3 466 33 q 342 -44 417 -44 q 242 -10 283 -44 q 193 38 208 15 q 129 307 129 133 q 126 352 129 350 q 22 390 22 352 q 83 430 22 424 l 133 434 q 143 559 143 477 l 143 670 q 163 698 144 687 q 219 695 188 712 q 240 664 240 684 q 223 455 240 635 q 252 460 235 452 l 284 474 q 339 484 302 477 q 382 480 344 480 q 423 466 411 480 q 434 446 432 459 q 411 404 440 420 q 240 373 351 373 q 222 364 230 371 q 217 286 217 325 q 361 32 217 32 q 392 74 366 32 q 399 100 399 85 l 399 149 q 432 175 404 168 q 472 182 441 178 q 489 142 489 168 q 485 110 489 131 q 482 78 482 89 "},"W":{"x_min":19,"x_max":1106.5625,"ha":1033,"o":"m 1106 830 q 1032 777 1106 777 q 995 786 1021 777 q 951 795 969 796 q 951 719 951 769 q 932 557 951 687 l 908 390 q 845 20 887 238 q 833 -29 836 -21 q 798 -65 824 -53 l 764 -62 q 713 1 727 -57 q 699 59 709 20 q 644 261 685 108 l 571 540 q 527 212 567 518 q 503 45 521 169 q 465 -22 495 -5 q 388 -37 438 -28 q 362 -18 377 -33 q 246 405 309 151 q 220 518 241 434 q 167 685 206 561 q 151 730 164 701 q 95 724 109 724 q 28 748 52 724 q 19 773 19 758 q 31 807 19 789 q 59 828 44 825 q 214 841 95 841 q 305 852 255 847 q 397 804 397 860 q 292 760 397 760 q 267 753 284 758 q 258 722 258 746 q 283 632 258 697 q 328 440 291 597 l 345 372 q 412 137 346 369 q 416 131 412 136 q 452 329 437 212 l 475 498 q 483 576 475 519 q 496 672 487 601 q 506 800 496 715 q 543 831 511 825 q 586 823 564 831 q 608 797 608 815 q 624 678 608 736 q 658 564 635 640 q 762 156 697 407 q 770 141 763 148 q 798 265 789 215 q 863 722 822 411 q 863 797 863 725 q 854 803 859 801 q 782 818 809 811 q 729 851 729 832 q 733 864 729 857 q 787 895 746 895 q 831 889 796 895 q 872 881 861 883 q 1010 881 876 881 q 1071 875 1055 881 q 1106 830 1106 863 "},"v":{"x_min":-34.953125,"x_max":613.40625,"ha":627,"o":"m 613 562 q 574 529 613 541 q 519 521 569 528 q 514 514 517 520 q 443 229 487 385 q 381 0 392 52 q 350 -52 369 -17 q 297 -73 307 -73 q 226 39 272 -73 q 174 174 219 54 q 103 353 151 231 q 69 438 93 375 q 53 489 64 454 q 12 509 40 511 q -16 521 -2 509 q -34 549 -31 534 q 0 592 -39 583 q 92 590 39 602 q 162 588 151 590 q 212 552 207 583 q 156 503 218 520 q 154 496 156 500 q 310 90 225 267 q 347 208 331 146 l 397 396 q 424 516 414 459 q 415 523 422 517 l 372 523 q 336 546 347 528 q 345 570 340 557 q 360 587 350 583 q 457 604 393 604 q 558 613 533 604 q 599 602 583 617 q 613 562 615 587 "},">":{"x_min":112.78125,"x_max":437.515625,"ha":417,"o":"m 431 385 q 362 334 409 363 l 288 288 q 237 239 263 264 q 180 209 201 209 q 115 238 122 209 q 128 288 106 268 q 160 304 141 292 q 238 356 180 325 q 310 410 292 386 q 237 474 287 435 q 155 546 172 524 q 122 589 137 562 q 123 607 122 603 q 165 631 134 626 q 237 588 188 635 q 303 521 237 588 l 387 455 q 431 427 403 446 q 437 405 438 420 q 431 385 435 391 "},"s":{"x_min":33.046875,"x_max":548,"ha":534,"o":"m 546 549 q 529 418 536 507 q 530 373 530 421 q 475 318 530 318 q 424 339 437 318 q 413 372 422 343 q 393 415 406 386 q 391 430 393 419 q 370 458 384 440 q 358 483 367 468 q 317 492 347 492 q 179 464 230 492 q 149 434 164 455 q 134 396 134 412 q 138 380 134 387 q 193 349 156 356 q 260 344 216 349 q 295 340 269 343 q 341 336 310 340 l 457 308 q 526 213 526 281 q 491 111 526 145 q 452 88 489 109 q 330 58 398 58 q 259 66 289 58 q 211 79 246 70 q 134 91 189 83 q 133 51 133 83 q 80 6 133 6 q 33 34 42 6 q 38 77 34 41 q 44 129 44 88 q 44 236 44 170 q 68 269 44 255 q 111 279 92 283 q 147 236 139 273 q 166 169 160 179 q 224 141 178 147 q 298 122 244 136 q 402 137 351 109 q 440 194 440 158 q 365 259 440 243 q 252 270 315 263 q 134 288 154 281 q 40 375 62 311 q 56 430 37 382 q 73 471 63 448 q 123 518 102 508 q 315 563 217 563 q 445 528 397 563 q 455 551 455 536 q 454 574 454 560 q 469 596 456 583 q 491 610 482 610 q 542 598 502 612 q 548 576 548 596 q 546 549 548 562 "},"B":{"x_min":-71.09375,"x_max":616.609375,"ha":678,"o":"m 616 306 q 358 109 593 205 q 243 75 320 93 q 126 43 161 56 q 65 27 74 24 q 32 53 39 35 q 49 88 26 74 q 103 102 60 95 q 101 111 103 105 q 99 121 99 117 l 92 156 q 92 408 92 210 q 92 476 92 428 q 75 483 79 479 q 81 558 81 518 q 67 706 81 625 l 69 708 q 44 710 57 710 q 16 708 35 710 q -12 706 -2 706 q -70 730 -42 706 q -70 748 -71 746 q 8 774 -57 774 q 57 779 19 774 l 78 788 q 307 790 277 788 q 428 776 406 782 q 541 708 508 757 q 544 654 554 690 q 456 559 530 601 q 336 511 422 541 q 609 360 532 470 q 616 306 616 348 m 292 732 l 217 732 q 147 723 185 732 q 160 609 160 636 l 160 526 q 358 580 232 537 q 440 626 424 602 q 463 673 463 658 q 390 722 463 705 q 292 732 342 732 m 529 294 q 529 331 540 316 q 236 453 432 453 q 168 453 205 453 q 186 156 168 308 q 184 145 184 146 q 193 123 189 135 q 380 178 279 132 q 529 294 497 231 "},"?":{"x_min":37,"x_max":475.890625,"ha":444,"o":"m 475 639 q 431 529 475 586 q 346 436 424 521 q 298 353 298 385 q 319 289 298 328 q 340 243 340 251 q 328 218 340 230 q 256 223 286 202 q 241 249 247 229 q 232 273 235 269 q 212 343 212 308 q 263 461 212 404 q 327 529 281 479 q 384 613 374 579 q 387 639 387 622 q 368 706 387 674 q 317 747 349 739 q 245 740 293 754 q 120 646 166 718 q 125 577 105 622 q 85 548 125 548 q 67 553 74 548 q 37 621 37 582 q 121 757 37 689 q 271 817 168 794 q 300 819 284 819 q 421 763 367 819 q 475 639 475 707 m 348 41 q 327 36 338 36 q 282 60 302 36 q 263 110 263 84 q 313 154 263 154 q 348 151 324 154 q 401 91 401 141 q 385 54 401 70 q 348 41 369 37 "},"H":{"x_min":27.390625,"x_max":785.9375,"ha":736,"o":"m 785 -53 q 761 -93 785 -79 q 713 -104 741 -104 l 681 -104 q 646 -104 637 -104 q 592 -108 619 -104 q 526 -131 576 -111 q 461 -149 481 -149 q 428 -136 443 -149 q 413 -104 413 -123 q 480 -58 413 -75 q 576 -32 577 -35 l 576 352 q 573 372 576 353 q 573 395 574 382 q 563 410 571 407 q 521 410 562 410 q 360 392 448 410 q 256 368 333 386 l 256 170 q 256 116 256 164 q 264 69 256 77 q 337 64 273 64 q 394 30 383 64 q 388 5 397 22 q 369 -15 379 -11 q 339 -24 347 -24 q 249 -17 314 -24 l 187 -11 l 97 -11 q 58 0 78 -11 q 32 28 32 12 q 105 72 32 72 q 141 72 106 72 q 175 72 161 72 q 175 139 175 99 q 175 184 175 152 q 175 237 175 217 l 175 352 q 177 370 175 359 q 180 389 180 382 q 172 406 176 395 q 171 416 171 411 q 172 425 171 421 q 180 496 180 445 q 180 526 180 505 q 181 554 181 546 q 181 611 181 591 l 181 650 l 181 765 q 173 791 181 773 q 116 787 134 787 q 27 844 35 787 q 104 888 48 887 q 160 885 70 888 q 260 883 250 883 l 329 883 q 384 871 367 883 q 397 837 401 859 q 333 800 392 807 q 249 800 290 800 q 260 691 260 747 q 260 585 260 662 q 260 519 260 566 q 258 476 258 519 q 262 472 259 474 q 307 472 284 472 q 438 481 359 472 l 570 494 q 577 600 577 539 q 557 858 577 715 l 502 858 q 426 910 426 858 q 435 933 426 924 q 503 957 463 957 q 564 955 578 957 l 660 955 q 689 957 670 955 q 717 960 708 960 q 779 909 779 960 q 722 874 779 874 l 638 874 q 654 554 654 707 l 654 185 q 658 135 654 169 q 662 83 662 101 q 662 -14 662 1 q 667 -21 665 -18 l 734 -13 q 785 -53 785 -13 "},"c":{"x_min":37,"x_max":442.984375,"ha":414,"o":"m 442 106 q 417 50 445 82 q 369 7 395 24 q 269 -19 327 -19 q 125 28 187 -19 q 48 155 64 75 l 37 207 l 37 278 q 64 362 41 305 q 88 409 71 378 q 271 513 147 488 q 296 516 285 516 q 380 499 338 516 q 433 443 433 478 q 418 408 433 423 q 383 394 403 394 q 342 417 363 394 q 280 441 320 441 q 245 435 267 441 q 173 392 208 431 q 129 313 138 353 q 123 270 126 302 q 125 220 125 253 q 166 110 118 164 q 272 56 215 56 q 309 65 292 56 q 395 127 337 88 l 409 126 q 435 117 428 126 q 442 106 438 113 "},"&":{"x_min":55.453125,"x_max":761.484375,"ha":721,"o":"m 761 418 q 750 369 757 398 q 665 281 730 291 q 591 303 629 276 q 553 368 553 330 q 579 378 566 378 q 612 361 590 378 q 641 344 635 344 q 650 346 646 344 q 682 423 682 383 q 633 463 682 463 q 529 404 582 463 q 464 296 489 356 q 605 168 530 224 q 642 127 642 146 q 612 90 642 94 q 539 108 557 83 q 421 227 525 128 q 399 195 410 215 q 312 107 368 143 q 193 72 255 72 q 134 84 168 72 q 110 102 125 90 q 61 176 73 132 q 55 208 61 188 q 73 319 61 256 q 110 368 76 331 l 192 456 q 141 530 172 480 q 110 675 110 603 q 110 686 110 679 q 124 736 110 708 q 158 767 139 764 q 275 816 179 816 q 395 800 353 816 q 474 700 474 761 q 410 569 474 646 q 297 453 382 536 q 404 348 353 393 q 523 490 456 446 q 612 526 558 512 q 626 528 618 528 q 716 497 673 528 q 761 418 765 464 m 386 688 q 391 704 391 696 q 349 746 391 734 q 283 752 317 756 q 188 668 188 740 q 213 571 188 631 q 250 515 226 539 q 331 594 285 540 q 386 688 384 656 m 361 285 q 240 401 313 328 q 132 212 132 301 q 134 183 132 197 q 140 177 137 182 q 162 147 143 159 q 201 135 182 135 q 224 140 215 135 q 307 196 264 150 q 361 285 350 242 "},"I":{"x_min":13.453125,"x_max":359,"ha":337,"o":"m 358 815 q 313 771 358 782 q 240 765 273 771 q 230 751 229 763 l 236 728 q 236 677 236 710 q 236 627 236 644 l 236 104 q 295 100 252 100 q 338 98 326 100 q 359 64 356 91 q 352 31 359 45 q 305 7 337 20 q 205 13 267 13 l 99 13 q 67 16 81 13 l 53 16 q 14 43 23 21 q 25 75 9 57 q 57 98 42 93 q 155 107 96 98 q 155 410 155 184 q 155 499 155 473 q 155 577 155 541 l 155 670 q 148 759 155 713 q 85 751 99 751 q 21 779 42 751 q 19 794 19 787 q 131 859 19 848 q 314 848 160 862 q 358 815 358 844 "},"G":{"x_min":24,"x_max":706,"ha":659,"o":"m 653 396 q 605 396 672 396 q 587 292 601 359 q 610 118 594 232 q 633 53 619 97 q 617 15 636 29 q 573 2 598 2 q 539 15 550 2 q 530 58 537 29 q 518 107 517 97 q 515 112 519 108 q 308 6 437 6 q 51 179 114 6 q 24 355 24 257 q 39 506 24 387 q 44 517 42 509 q 74 637 51 558 q 382 876 171 876 q 557 812 479 876 q 560 824 558 815 q 559 847 559 833 q 560 877 559 860 q 603 900 565 900 q 615 897 610 900 q 636 871 633 890 q 628 751 640 838 q 618 688 628 726 q 583 672 603 672 q 539 698 552 672 q 534 723 539 708 q 380 818 486 818 q 201 730 267 818 q 135 567 168 685 q 124 528 128 551 q 109 375 109 450 q 139 192 109 278 q 210 110 157 142 q 318 78 263 78 q 390 93 353 78 q 467 183 417 104 q 483 224 476 199 q 496 266 494 262 q 506 331 506 288 q 514 394 506 375 q 419 387 475 394 l 338 375 q 272 410 290 375 q 270 436 267 421 q 358 483 285 483 q 386 481 371 483 q 545 473 487 473 q 590 473 556 473 q 640 473 625 473 q 689 468 668 473 q 706 433 706 453 q 653 396 706 396 "},"(":{"x_min":62,"x_max":381.109375,"ha":355,"o":"m 381 17 q 358 -28 376 -1 l 329 -28 q 293 -18 307 -28 q 209 47 262 2 q 147 120 201 54 q 131 151 142 129 q 82 263 94 226 l 62 382 l 62 455 q 189 808 89 696 q 248 871 230 854 q 332 924 298 918 q 365 914 347 926 q 370 888 370 899 q 365 868 370 875 q 321 831 346 853 q 180 643 221 743 q 143 412 143 553 q 296 85 143 190 q 381 17 368 38 "},"U":{"x_min":5.84375,"x_max":839,"ha":782,"o":"m 839 758 q 742 702 832 702 q 738 576 738 642 q 726 375 738 499 q 711 229 722 335 q 547 -12 683 27 q 411 -36 468 -36 q 348 -27 375 -36 q 227 43 284 -8 q 148 157 169 94 q 135 282 135 197 l 135 670 q 110 699 135 682 q 48 703 57 699 q 5 745 12 713 q 53 794 15 780 q 111 804 64 798 q 157 812 130 809 q 215 814 168 814 q 266 814 222 814 q 340 804 301 814 q 360 775 360 798 q 286 726 360 726 q 223 716 261 726 q 214 696 214 710 q 218 675 218 682 q 218 549 218 625 q 218 476 218 490 l 218 390 q 223 370 218 383 q 229 350 229 357 l 229 247 q 238 214 233 236 q 299 94 238 150 q 425 38 359 38 q 524 57 455 38 q 575 97 551 65 q 604 158 599 128 q 621 197 611 171 q 648 408 635 285 q 663 692 663 537 q 603 684 637 692 q 551 677 568 677 q 498 707 515 677 q 528 749 493 735 q 580 760 543 753 q 748 792 618 767 q 839 758 839 810 "},"F":{"x_min":14.65625,"x_max":780.390625,"ha":728,"o":"m 780 680 q 769 662 777 673 q 723 651 751 651 q 688 681 694 651 q 689 737 685 693 q 694 800 694 786 q 687 832 694 821 q 506 832 617 832 q 250 798 329 832 q 243 770 248 783 q 244 744 243 760 q 242 686 242 717 q 264 518 242 607 q 407 527 313 518 q 407 590 407 547 l 407 653 q 398 685 402 667 q 436 730 398 730 q 483 700 483 735 l 486 667 q 492 540 492 617 q 524 498 524 531 q 522 487 524 491 q 504 463 515 480 l 504 441 q 509 350 504 413 q 504 316 512 322 q 452 300 480 300 q 421 322 425 300 l 421 416 q 416 448 419 427 q 371 450 405 455 q 320 444 357 449 q 265 432 301 444 q 264 350 264 441 l 264 236 q 260 213 264 249 q 257 131 257 176 l 257 94 l 261 93 q 363 93 287 93 q 387 101 373 97 q 409 101 402 104 q 431 83 421 97 q 442 58 442 69 q 391 16 442 43 q 380 17 388 16 l 283 17 q 177 -8 248 17 q 71 -33 105 -33 q 41 -27 55 -33 q 15 7 15 -12 q 17 30 13 23 q 88 71 38 71 q 135 71 104 71 q 179 83 170 71 q 179 139 179 101 q 179 256 179 212 l 179 409 l 106 409 q 74 450 74 411 q 113 492 74 472 q 170 505 133 495 q 161 610 161 554 q 164 675 161 632 q 168 735 168 717 q 161 775 168 765 q 123 770 148 775 q 85 765 98 765 q 38 791 53 765 q 33 806 33 798 q 67 844 33 829 q 124 858 95 858 q 200 867 152 858 l 280 881 q 472 911 338 891 q 702 911 533 911 q 757 920 747 924 q 779 888 776 912 q 779 849 779 885 q 774 787 779 834 q 774 720 774 751 q 776 712 774 717 q 779 706 779 707 q 780 680 779 696 "},"r":{"x_min":-65,"x_max":515,"ha":555,"o":"m 513 411 q 460 383 495 383 q 417 405 431 383 q 399 439 410 416 q 346 467 379 467 q 258 420 302 467 q 206 332 218 378 q 206 203 206 313 q 206 60 206 160 q 217 56 208 58 q 245 56 226 56 q 274 56 264 56 q 338 25 324 56 q 338 0 336 16 q 264 -41 306 -47 q 200 -38 225 -35 q 151 -47 182 -41 q 66 -45 71 -47 q 5 -2 5 -40 q 64 43 5 43 l 115 43 q 120 82 120 61 q 109 115 118 94 q 109 363 109 231 q 100 411 109 398 q 88 456 97 443 q 72 458 81 458 q 30 451 59 458 q -11 445 2 445 q -30 447 -21 445 q -65 495 -65 455 q -45 527 -65 513 q -7 542 -25 542 q 75 547 53 542 q 121 557 88 550 q 199 533 183 567 q 200 492 204 522 q 232 505 208 492 q 267 525 264 523 q 370 548 332 553 q 407 543 402 544 q 492 480 455 536 q 515 424 515 449 q 513 411 515 417 "},":":{"x_min":81,"x_max":210,"ha":206,"o":"m 165 441 q 153 439 160 439 q 105 459 129 439 q 81 504 81 480 q 96 537 81 521 q 129 552 112 554 q 210 494 205 544 q 165 441 210 455 m 160 274 q 110 289 135 269 q 85 333 85 308 q 89 353 85 343 q 129 374 105 362 q 182 360 155 374 q 210 321 210 346 q 194 289 210 304 q 160 274 178 274 "},"x":{"x_min":37,"x_max":757.265625,"ha":713,"o":"m 756 448 q 748 430 752 443 q 705 412 726 412 q 692 413 698 412 l 654 426 q 608 433 623 437 q 576 400 592 429 q 514 306 539 339 l 463 239 q 460 225 456 229 q 583 72 471 208 q 621 75 595 72 q 659 79 647 79 q 718 30 726 79 q 699 11 718 23 q 673 0 681 0 q 487 -15 535 -15 l 432 -15 q 388 12 399 -9 q 420 52 391 40 q 473 65 425 53 q 395 162 449 98 q 301 51 366 126 q 329 0 329 30 q 323 -17 329 -10 q 270 -43 302 -43 q 205 -26 245 -43 q 140 0 147 -1 q 40 58 66 22 q 45 74 41 65 q 85 93 60 93 q 167 73 88 91 q 206 65 204 65 q 333 222 212 65 q 254 325 335 226 q 191 388 209 379 q 109 428 176 428 q 38 475 60 428 q 45 505 33 487 q 72 527 58 522 q 102 532 85 532 q 165 523 126 532 q 227 513 210 514 q 337 513 265 513 q 381 480 376 505 q 301 422 389 440 q 395 296 335 360 q 459 376 452 367 q 507 460 494 425 q 437 512 437 490 q 481 548 437 548 q 574 525 498 548 q 741 486 631 518 q 756 448 759 478 "},"*":{"x_min":70.71875,"x_max":496,"ha":488,"o":"m 491 419 q 496 408 496 415 q 488 385 496 399 q 471 371 480 372 q 384 350 437 365 q 430 316 392 339 q 478 281 467 293 q 483 262 484 276 q 437 224 483 224 q 323 286 409 224 q 317 281 320 286 q 330 225 324 255 q 283 182 337 182 q 240 201 251 182 q 219 273 234 225 q 170 218 205 218 q 131 232 147 218 q 122 250 126 236 q 123 274 117 266 q 161 322 141 290 q 138 321 152 321 q 101 327 112 321 q 70 360 90 334 q 111 395 74 390 q 173 395 142 395 q 115 450 159 417 q 79 490 80 476 q 84 514 76 507 q 127 529 102 529 q 151 521 141 529 q 213 457 173 494 q 211 499 211 466 q 228 532 211 520 q 267 545 246 545 q 285 542 277 545 q 304 514 304 533 q 308 475 304 479 q 349 526 320 492 q 396 546 366 546 q 441 524 428 546 q 420 479 446 508 q 381 440 420 479 q 431 439 388 439 q 491 419 470 439 "},"V":{"x_min":29,"x_max":818,"ha":764,"o":"m 813 844 q 755 805 801 805 q 720 807 745 805 q 680 809 694 810 q 672 804 677 807 q 658 700 668 781 q 612 432 645 589 l 556 167 q 538 86 551 144 q 518 -17 533 57 q 476 -81 511 -49 q 430 -105 451 -105 q 390 -80 402 -105 q 379 -30 386 -57 q 343 72 370 -6 q 282 274 326 128 l 197 546 q 164 663 187 594 q 88 649 105 649 q 44 658 65 649 q 29 690 29 671 q 58 734 29 724 q 166 755 122 755 q 208 763 180 759 q 269 768 230 760 q 330 777 314 777 q 368 768 351 777 q 382 736 382 756 q 348 691 382 700 q 267 674 318 691 q 291 547 267 617 q 336 421 314 485 q 441 69 341 361 q 462 146 452 94 l 481 242 q 525 440 495 303 l 552 586 q 587 804 579 726 l 584 804 q 481 804 490 804 q 448 825 469 804 q 454 834 450 830 q 455 857 452 842 q 612 890 477 890 q 695 890 634 890 q 736 895 709 890 q 759 900 762 900 q 818 865 818 900 q 813 844 818 856 "},"h":{"x_min":30.671875,"x_max":806.765625,"ha":753,"o":"m 806 0 q 757 -58 812 -38 q 690 -58 712 -58 q 578 -71 650 -58 q 467 -89 496 -85 q 429 -83 446 -92 q 413 -52 413 -73 q 443 -12 413 -31 q 497 6 474 6 q 543 6 519 6 q 575 28 571 8 q 580 81 575 48 l 580 244 q 499 585 580 542 q 439 589 478 596 q 291 471 367 576 q 291 391 291 441 q 291 309 291 318 l 291 226 q 287 191 291 191 q 289 142 287 159 q 289 136 289 127 q 379 130 335 136 q 443 87 443 120 q 436 60 443 76 q 399 37 425 51 q 343 32 383 32 q 326 30 338 32 q 308 28 314 28 q 246 30 262 28 q 180 30 213 32 q 116 24 135 24 q 41 50 59 24 q 39 73 33 60 q 100 117 57 117 q 148 113 114 117 q 200 109 183 109 q 200 172 200 134 q 204 201 208 184 q 201 222 203 209 q 208 325 208 289 l 208 430 q 203 476 208 432 l 199 521 l 199 611 q 183 750 193 660 q 175 759 182 756 q 115 738 154 750 q 62 745 90 734 q 30 780 30 757 q 132 837 30 821 q 189 843 153 837 q 257 843 231 857 q 275 773 275 834 q 277 688 277 800 q 285 600 285 675 q 313 614 293 597 q 353 645 338 635 q 460 670 381 661 q 535 663 490 672 q 578 632 552 658 q 613 588 604 606 q 656 357 656 511 q 656 212 656 315 q 656 129 656 181 q 656 47 656 69 q 703 30 656 30 q 751 39 714 32 q 774 37 761 39 q 806 0 799 34 "},"0":{"x_min":37.4375,"x_max":619,"ha":601,"o":"m 619 401 q 596 228 619 356 q 462 9 573 90 q 310 -47 385 -47 q 267 -40 288 -47 q 103 86 160 -5 q 53 222 58 158 q 43 291 53 243 l 43 394 q 44 397 44 396 q 37 403 43 400 l 46 403 q 51 430 46 411 q 56 458 56 448 q 53 474 56 467 q 62 478 58 474 q 55 481 60 481 q 60 485 56 482 q 65 489 63 487 q 58 493 62 490 q 104 664 87 622 q 209 808 134 736 q 263 838 234 832 q 317 841 251 841 q 458 804 392 841 q 559 701 523 767 q 600 591 582 658 q 619 478 619 525 l 619 401 m 527 557 q 508 607 519 576 q 427 722 494 668 q 299 770 360 775 q 210 682 274 767 q 149 521 178 639 q 122 347 122 408 q 127 238 122 273 q 196 99 141 156 q 337 36 257 36 q 360 38 349 36 q 470 127 420 48 q 508 229 488 155 q 536 444 536 333 q 527 557 536 505 "},".":{"x_min":135,"x_max":260,"ha":252,"o":"m 210 32 q 160 47 185 27 q 135 91 135 66 q 139 111 135 101 q 179 132 155 120 q 232 118 204 132 q 260 81 260 104 q 244 47 260 63 q 210 32 228 32 "},"@":{"x_min":32.484375,"x_max":590.734375,"ha":571,"o":"m 589 465 q 576 400 594 440 q 535 349 558 359 q 482 339 513 339 q 403 361 438 339 q 296 304 360 304 q 199 377 225 304 q 199 427 193 394 q 249 503 207 476 q 274 513 264 510 q 353 511 312 524 q 419 467 395 498 q 446 433 431 451 q 478 411 462 415 q 508 480 508 445 q 437 577 508 537 q 313 614 374 614 q 252 607 291 614 q 185 559 225 602 q 135 492 149 523 q 112 381 112 444 q 135 271 112 317 q 178 221 148 248 q 234 185 209 194 q 298 183 259 177 q 362 202 334 188 q 417 242 377 209 q 456 265 445 265 q 502 241 460 263 q 499 215 503 231 q 403 141 464 169 q 283 112 342 112 q 126 159 184 112 q 90 196 111 171 q 37 368 37 258 q 35 384 34 373 q 32 440 31 431 q 52 501 39 460 q 57 498 49 501 l 88 551 q 134 612 107 586 q 291 672 192 672 q 431 643 356 672 q 552 566 512 612 q 589 465 577 538 "},"f":{"x_min":28,"x_max":556,"ha":456,"o":"m 504 581 q 458 608 471 581 q 447 654 455 624 q 368 717 421 717 q 274 663 318 717 q 231 560 231 610 q 233 542 231 550 q 328 487 328 542 q 229 439 328 439 q 241 250 225 408 q 250 133 250 205 q 250 61 250 115 q 282 58 263 58 q 321 61 295 58 q 359 64 347 64 q 391 55 382 64 q 410 9 416 34 q 344 -24 396 -24 q 311 -21 344 -24 q 280 -20 290 -21 q 196 -25 252 -20 q 118 -36 143 -36 q 41 20 41 -36 q 102 70 41 70 q 111 72 104 70 q 122 74 118 74 q 143 72 129 74 q 160 70 157 70 q 160 226 160 103 q 147 326 160 239 q 141 434 141 393 q 72 445 86 441 q 28 487 28 459 q 30 505 28 496 q 142 549 49 549 q 169 655 147 585 q 260 750 198 712 q 385 788 321 788 q 493 746 455 788 q 525 705 505 732 q 556 617 556 629 q 504 581 556 581 "},";":{"x_min":68,"x_max":235,"ha":220,"o":"m 198 571 q 184 536 198 552 q 152 520 171 520 q 138 523 145 520 q 94 539 114 523 q 74 579 74 556 q 138 625 74 617 q 175 606 157 616 q 198 571 198 591 m 227 276 q 213 239 227 262 q 178 225 204 230 q 139 235 157 221 q 124 269 121 248 q 131 292 126 276 q 93 318 97 314 q 68 353 71 337 q 126 426 68 415 q 200 390 165 433 q 235 305 235 346 q 227 276 235 289 "},"i":{"x_min":28.109375,"x_max":418,"ha":383,"o":"m 281 697 q 253 658 278 675 q 205 638 229 642 q 175 642 194 638 q 125 701 125 653 q 145 756 125 732 q 194 782 165 779 q 255 757 226 785 q 271 729 261 753 q 281 697 281 706 m 411 -52 q 379 -76 404 -63 q 343 -85 354 -88 q 233 -76 303 -76 q 122 -73 152 -76 q 94 -52 109 -71 q 92 -40 92 -46 q 114 -5 92 -22 q 156 12 137 12 q 214 12 175 12 q 217 25 217 18 q 207 43 217 35 l 207 153 q 207 264 207 178 q 207 375 207 308 q 186 488 207 413 q 175 491 180 491 q 122 475 181 491 q 85 470 100 470 q 30 497 46 470 q 30 527 25 507 q 80 567 42 563 q 141 573 97 569 q 181 584 152 576 q 223 591 207 591 q 274 542 274 591 q 278 508 274 508 q 292 315 292 445 l 292 246 q 294 219 292 236 q 297 192 297 201 l 297 90 q 303 21 297 36 q 344 13 305 13 q 391 10 344 10 q 418 -35 418 2 q 411 -52 418 -45 "},"6":{"x_min":26,"x_max":629.671875,"ha":589,"o":"m 629 213 q 594 55 634 170 q 495 -31 576 5 q 363 -63 423 -63 q 175 5 266 -63 q 113 82 163 14 l 89 127 q 67 160 80 137 l 42 246 q 26 402 26 310 q 27 485 26 478 q 67 595 31 510 q 91 631 74 605 q 197 742 130 698 q 342 787 264 787 q 407 784 348 787 q 468 768 414 784 q 509 740 489 763 q 530 696 530 717 q 485 658 530 662 q 450 664 461 655 q 413 703 443 679 q 345 717 378 717 q 173 605 246 717 q 117 421 107 505 q 352 512 210 512 q 398 510 374 512 q 406 505 402 510 q 520 455 461 505 q 599 355 571 412 q 620 314 606 344 q 629 213 629 285 m 544 213 q 500 359 544 303 q 334 444 433 444 q 138 325 241 444 q 123 317 132 323 q 360 13 178 13 q 434 28 392 14 q 496 64 476 41 q 544 213 544 119 "},"A":{"x_min":33,"x_max":851.5625,"ha":791,"o":"m 791 111 q 611 7 694 71 q 556 -5 595 -5 q 533 4 544 -5 q 522 26 522 14 q 559 69 522 44 q 612 104 575 79 q 566 268 614 111 q 326 217 492 268 q 310 179 316 215 q 305 167 307 175 q 322 154 305 163 q 343 142 340 146 q 346 129 346 137 q 330 96 346 109 q 295 83 315 83 q 245 94 289 84 q 118 100 223 100 q 33 135 33 100 q 66 179 33 173 q 116 176 84 182 q 225 170 123 170 q 253 329 234 235 q 344 763 278 444 q 315 766 330 766 q 236 750 288 766 q 159 735 185 735 q 131 750 149 735 q 130 760 130 756 q 168 796 130 789 q 363 822 278 822 l 405 822 q 461 743 440 822 q 495 644 469 714 q 554 498 512 601 l 616 355 q 695 153 634 311 q 755 176 714 156 q 812 197 797 197 q 844 184 829 197 q 851 164 848 180 q 833 128 851 139 q 791 111 826 125 m 539 340 q 479 479 519 379 q 404 646 472 495 l 334 295 q 530 331 459 319 q 539 340 539 337 "},"n":{"x_min":15,"x_max":722.390625,"ha":675,"o":"m 722 62 q 633 17 716 24 q 519 -10 604 14 q 458 -26 463 -26 q 426 5 423 -26 q 466 46 429 28 q 518 70 516 69 q 504 206 520 77 q 450 402 498 252 q 379 464 423 464 q 297 425 348 464 q 248 379 255 394 q 216 352 233 372 q 218 322 218 341 q 218 239 218 294 q 218 156 218 184 q 219 116 218 128 q 287 109 220 114 q 332 73 332 105 q 313 34 332 53 q 224 26 304 26 q 179 26 204 26 l 128 26 q 48 42 79 26 q 36 67 36 49 q 65 103 36 98 q 128 110 86 100 q 102 487 128 239 q 97 493 100 491 q 71 489 84 489 q 15 540 15 489 q 27 564 17 550 q 70 577 34 568 q 172 589 143 598 q 207 529 207 577 q 205 459 207 451 q 401 539 325 539 q 551 400 512 539 q 587 274 559 381 q 595 184 591 230 q 615 96 601 131 q 672 112 663 112 q 708 100 691 112 q 722 62 723 67 "},"O":{"x_min":35,"x_max":693,"ha":681,"o":"m 693 439 q 668 214 693 335 q 630 95 652 135 q 545 6 601 44 q 433 -30 480 -33 q 218 15 344 -30 q 51 266 79 84 q 35 340 47 279 q 35 389 35 364 q 123 729 35 571 q 206 841 158 790 q 321 910 271 910 q 573 819 466 910 q 685 590 633 768 q 693 439 693 567 m 620 369 q 605 561 618 515 q 576 637 595 596 q 556 704 569 660 q 543 729 552 714 l 545 732 q 457 813 518 762 q 353 845 405 845 q 210 744 269 845 q 116 391 116 587 q 121 301 116 344 q 132 272 129 288 q 330 44 174 73 q 423 36 405 30 q 615 327 587 36 q 620 369 620 386 "},"3":{"x_min":40,"x_max":736,"ha":692,"o":"m 723 312 q 736 206 736 255 q 712 92 736 138 q 692 55 710 82 q 292 -88 549 -88 q 144 -6 233 -88 q 80 77 87 45 q 66 110 76 88 q 56 171 65 121 q 54 156 54 167 q 51 178 51 166 q 87 287 51 230 q 174 350 127 350 q 217 333 196 350 q 223 315 223 329 q 212 286 223 319 q 170 251 173 252 q 142 208 145 226 q 139 184 139 196 q 201 46 139 113 q 334 -20 263 -20 q 361 -17 347 -20 q 430 -11 384 -17 q 627 107 595 27 q 644 197 644 148 q 627 284 644 241 q 614 316 624 292 q 491 420 559 399 q 420 429 467 429 q 345 430 355 429 q 272 455 300 436 q 264 479 264 465 q 291 529 264 512 q 373 640 305 537 q 490 810 404 684 q 151 789 319 810 q 160 712 151 769 q 175 625 173 636 q 158 589 175 605 q 121 569 142 573 q 83 586 98 565 q 54 775 69 676 q 48 782 52 778 l 40 823 q 124 877 40 877 q 320 877 177 877 q 545 893 438 877 q 609 871 596 899 q 602 825 620 847 q 470 651 556 798 l 402 534 q 712 330 650 497 q 723 312 717 324 "},"]":{"x_min":64,"x_max":313,"ha":312,"o":"m 313 503 q 310 250 310 348 q 313 164 313 223 q 313 71 313 103 q 306 60 313 68 q 299 44 299 51 q 255 28 285 36 q 221 29 244 28 q 187 31 198 31 q 159 31 177 31 q 131 31 141 31 q 88 40 102 31 l 73 71 q 131 112 83 112 q 164 109 143 112 q 197 107 186 107 q 219 110 209 107 q 224 159 220 123 l 229 195 l 229 595 l 223 655 q 219 712 219 684 q 206 766 215 751 q 137 772 187 772 q 104 772 111 772 q 66 783 86 772 q 64 804 64 794 q 87 837 64 834 q 109 837 88 837 q 163 840 170 840 q 292 824 190 840 q 303 809 300 816 q 302 785 302 814 q 302 753 302 773 q 306 723 306 730 q 310 642 310 710 q 310 562 310 581 l 311 556 q 308 546 308 551 q 311 530 311 538 q 308 519 311 523 q 313 503 313 501 "},"m":{"x_min":15,"x_max":1207.84375,"ha":1133,"o":"m 1206 51 q 1179 2 1213 21 q 1117 -9 1145 -17 q 1009 -9 1080 0 q 888 -15 926 -21 q 857 4 878 -14 q 857 41 855 35 q 909 72 871 66 q 965 72 937 72 q 927 272 965 113 q 906 341 916 317 q 740 535 828 535 q 668 491 699 535 q 620 425 620 425 l 620 94 q 657 86 633 86 q 683 88 667 86 q 707 90 699 90 q 755 48 755 90 q 723 8 755 27 q 670 -10 692 -10 q 556 -9 682 -9 q 521 -13 544 -9 q 486 -17 497 -17 q 428 6 450 -17 q 423 20 423 11 q 464 73 423 59 q 538 79 481 79 q 538 226 538 149 q 526 291 535 241 q 526 433 526 330 q 463 559 518 520 l 429 572 q 416 575 424 575 q 312 503 370 575 q 299 484 303 491 l 285 457 q 254 430 270 448 q 254 322 254 409 q 281 96 254 217 l 353 86 q 392 30 396 74 q 344 -9 371 -1 q 277 -9 342 -9 q 220 -13 256 -9 q 163 -13 180 -13 q 91 -5 120 -13 q 66 27 88 -4 q 107 87 62 76 q 184 103 112 88 q 162 468 162 172 q 148 559 162 539 q 112 569 141 569 q 53 569 60 569 q 15 612 15 576 q 134 668 15 668 q 212 665 192 668 q 240 601 247 651 q 245 552 238 598 l 299 607 q 334 626 309 611 q 435 657 384 657 q 586 552 531 657 q 684 611 617 576 q 750 621 716 621 q 824 604 798 621 q 1033 201 980 508 q 1049 121 1038 184 q 1063 86 1055 93 q 1145 86 1110 86 l 1171 86 q 1206 51 1187 83 "},"9":{"x_min":33,"x_max":591,"ha":573,"o":"m 591 514 q 553 201 591 288 q 452 71 523 132 q 413 51 442 65 q 273 17 353 17 q 147 53 205 17 q 139 71 139 61 q 143 74 140 72 q 188 116 137 116 q 220 109 206 116 q 236 96 224 103 q 285 88 261 88 q 430 158 366 88 q 493 309 493 228 q 491 334 493 322 q 315 269 423 269 q 172 300 241 269 q 61 396 93 336 q 33 506 33 450 q 66 660 33 602 q 185 768 98 713 q 332 818 264 818 l 392 818 q 456 786 434 809 q 475 769 463 780 l 517 716 q 553 657 545 680 q 585 591 579 614 q 591 514 591 568 m 487 617 q 477 637 487 617 q 462 651 471 651 q 442 696 456 683 q 405 726 435 705 l 406 727 q 389 736 402 734 l 373 736 q 308 741 328 745 q 207 691 262 733 q 134 608 151 650 q 123 550 123 582 q 206 379 123 439 q 310 341 261 341 q 445 404 383 332 q 505 546 505 471 q 485 610 505 584 q 487 617 487 613 "},"l":{"x_min":10,"x_max":354,"ha":330,"o":"m 308 -104 q 264 -111 287 -111 q 245 -109 254 -111 q 207 -108 252 -108 q 180 -108 197 -108 q 153 -108 163 -108 q 101 -108 127 -108 q 39 -66 44 -108 q 43 -35 36 -46 q 97 0 60 -8 q 161 3 103 3 l 166 8 l 166 194 q 139 546 166 249 q 139 568 139 549 q 139 613 139 592 q 131 700 139 664 q 74 723 124 723 q 30 736 51 723 q 10 771 10 749 q 14 788 10 780 q 89 833 29 833 q 110 828 100 833 q 171 820 168 821 q 220 787 205 812 q 225 711 225 785 q 241 670 241 695 q 241 436 241 550 q 241 214 241 282 l 241 121 q 241 -3 241 78 q 316 -17 304 -13 q 354 -53 354 -30 q 308 -104 354 -88 "},"8":{"x_min":19.890625,"x_max":660,"ha":616,"o":"m 660 329 q 653 221 660 271 q 632 173 651 212 q 519 56 595 102 q 361 10 443 10 q 51 143 151 10 q 49 153 51 147 q 22 249 22 205 q 38 325 22 278 q 35 333 37 328 q 158 502 84 447 q 27 599 53 538 q 27 674 12 637 q 127 784 53 735 q 267 832 201 832 q 310 832 284 832 l 344 832 q 484 800 426 832 q 573 691 554 762 q 579 642 583 656 q 477 517 559 571 q 521 497 493 510 q 577 474 542 492 q 660 329 660 406 m 475 712 q 418 750 460 733 q 348 768 377 768 q 287 761 328 768 q 185 716 238 748 q 121 636 117 674 q 277 556 130 556 q 385 570 332 556 q 439 586 407 575 q 491 668 491 620 q 475 712 491 691 m 563 234 q 575 317 575 299 q 353 470 575 440 q 330 483 344 476 q 298 485 308 486 q 172 400 231 476 q 114 255 114 324 q 188 125 114 172 q 341 85 254 85 q 477 125 411 85 q 563 234 552 169 "},"p":{"x_min":-83,"x_max":574,"ha":588,"o":"m 565 323 q 522 252 543 270 q 499 223 516 241 q 311 165 412 165 q 162 202 230 165 l 162 -155 q 193 -160 175 -160 q 211 -158 198 -160 l 229 -158 q 289 -198 289 -158 q 273 -233 289 -215 q 240 -254 257 -250 q 189 -256 230 -256 q 115 -260 162 -256 q 41 -267 64 -267 q 14 -269 35 -267 q -13 -269 -2 -272 q -68 -214 -68 -257 q -9 -169 -53 -178 q 61 -168 -2 -168 q 74 -148 67 -162 q 74 77 74 -112 l 74 180 q 50 523 74 321 q 8 521 35 525 q -33 517 -21 517 q -67 529 -52 517 q -83 561 -83 542 q -44 600 -83 586 q 14 612 -15 612 q 51 616 26 612 q 89 621 76 621 q 108 623 133 623 q 140 609 122 623 q 152 565 152 600 q 154 514 152 522 q 347 624 222 593 q 454 599 394 635 q 534 521 508 567 q 574 377 574 454 q 565 323 574 342 m 473 440 q 419 515 461 482 q 345 542 377 549 q 198 441 265 522 q 154 397 178 422 q 151 359 149 380 l 157 321 q 229 253 179 296 q 284 235 243 243 q 318 237 295 235 q 486 366 486 237 q 473 440 486 397 "},"4":{"x_min":27.71875,"x_max":668,"ha":631,"o":"m 644 16 q 552 12 620 3 q 446 18 484 18 q 402 15 418 18 q 382 12 387 13 q 380 12 376 12 q 305 8 361 8 q 222 55 222 8 q 245 92 222 78 q 294 105 269 105 q 313 103 305 105 l 399 103 q 423 107 407 103 q 416 223 423 144 q 409 341 409 301 q 398 379 409 364 q 256 358 362 379 q 116 343 167 343 q 70 347 94 343 q 27 393 54 349 q 43 436 30 405 l 43 440 q 54 445 47 440 q 262 740 109 520 q 308 811 292 785 q 377 873 333 855 q 399 872 387 876 q 416 865 407 867 q 439 861 436 861 q 468 833 463 854 q 480 750 480 822 q 480 663 480 707 q 480 472 480 611 q 542 477 506 472 q 594 482 578 482 q 646 443 646 482 q 643 423 646 434 q 572 393 618 393 q 550 394 565 393 q 529 396 535 396 q 505 391 515 396 q 505 245 505 330 q 521 105 505 136 q 633 105 569 105 q 668 54 668 105 q 644 16 668 29 m 396 465 q 383 716 383 580 q 377 717 379 716 q 382 724 382 721 q 377 732 382 725 q 377 742 375 738 q 382 756 382 747 q 341 702 362 736 q 305 644 312 654 q 172 448 233 544 q 174 439 170 443 q 285 448 220 439 l 396 465 "},"R":{"x_min":18,"x_max":808.78125,"ha":756,"o":"m 807 124 q 787 58 814 100 q 737 0 761 15 q 653 -22 710 -17 q 564 21 604 -27 q 522 115 528 64 q 484 335 508 256 q 411 438 470 414 q 343 464 393 444 q 329 464 337 465 q 249 442 310 458 l 249 307 q 251 278 249 296 q 254 247 254 256 q 260 122 260 200 q 282 122 271 118 q 349 129 322 137 q 369 96 369 122 q 305 42 369 58 q 208 28 274 38 q 114 16 133 16 q 48 38 66 16 q 95 93 44 83 q 179 103 137 97 q 175 118 175 110 q 175 347 175 160 q 175 420 175 401 q 133 422 141 420 q 107 450 112 430 l 107 454 q 111 468 109 456 q 161 492 130 498 q 159 536 163 498 q 146 747 146 656 q 120 750 139 753 q 91 745 111 749 q 18 781 18 745 q 137 834 20 814 q 280 852 209 844 q 379 844 292 844 l 440 844 q 621 715 583 844 q 624 661 624 700 q 612 610 624 625 q 484 505 579 551 q 485 500 484 501 q 532 455 519 475 q 580 286 568 399 q 610 96 597 137 q 630 68 611 86 q 658 49 649 50 q 711 89 701 49 q 724 130 710 104 q 771 149 743 149 q 807 124 800 149 m 529 611 q 542 650 542 624 q 447 768 542 744 q 274 780 405 780 q 237 768 262 780 q 238 733 243 747 q 240 694 240 715 q 240 601 240 669 l 240 510 q 317 523 266 510 q 336 539 324 530 q 386 542 346 542 q 529 611 463 542 "},"o":{"x_min":28,"x_max":541.890625,"ha":504,"o":"m 541 237 q 507 97 541 165 q 425 16 484 54 q 318 -25 366 -20 q 284 -25 300 -25 q 61 87 135 -25 q 28 241 28 139 q 32 287 28 247 q 47 335 37 304 q 128 446 64 393 q 250 512 186 494 q 279 511 261 515 l 311 503 q 397 480 343 499 q 432 453 408 471 q 532 278 515 389 q 541 237 536 264 m 376 397 q 308 430 348 422 q 244 442 290 435 q 116 234 116 361 q 198 86 116 137 q 307 51 254 51 q 363 72 325 51 q 414 108 401 93 q 453 246 453 158 q 376 397 453 328 "},"5":{"x_min":17.015625,"x_max":636,"ha":606,"o":"m 636 204 q 612 105 636 181 q 567 44 605 89 q 323 -76 466 -76 q 203 -48 259 -76 q 132 9 180 -24 q 80 90 131 26 q 61 149 78 107 q 44 204 44 192 q 62 235 44 222 q 98 248 80 248 q 134 222 124 248 q 134 179 134 209 q 174 87 142 136 q 246 15 207 34 q 330 -4 284 -4 q 470 55 408 -4 q 509 94 503 87 q 535 142 524 112 q 538 158 533 153 q 550 207 550 168 q 551 226 550 213 q 552 245 552 239 q 542 304 550 254 q 534 314 538 308 q 438 424 526 389 q 298 452 370 452 q 185 428 216 452 q 96 392 127 392 q 45 431 63 392 q 47 475 47 446 l 17 720 q 115 791 9 791 q 160 788 127 791 q 206 788 190 785 q 357 788 267 788 q 408 796 374 788 q 462 804 443 804 q 512 769 506 804 q 512 673 512 730 q 512 635 512 638 q 509 602 512 612 q 463 590 481 590 q 413 666 413 590 q 411 712 413 707 q 286 712 368 712 q 129 693 259 712 q 120 687 125 691 q 124 594 116 652 q 136 502 136 525 q 174 515 142 503 q 227 523 194 515 q 324 534 284 534 q 506 492 430 534 q 622 350 594 445 q 636 290 636 303 l 636 204 "}}}
